<svg width="2564" height="2324" viewBox="0 0 2564 2324" fill="none" xmlns="http://www.w3.org/2000/svg">
<path d="M91.5424 385.804H2291.42V90.2179C2291.42 76.8832 2288.42 63.7145 2282.62 51.6615C2276.83 39.6084 2268.39 28.9715 2257.91 20.5178C2247.44 12.0641 2235.19 6.00428 2222.05 2.77546C2208.9 -0.453365 2195.2 -0.770735 2181.91 1.8462L76.4379 342.491C60.7599 345.564 46.1725 352.624 34.1271 362.97C22.0818 373.316 12.9985 386.587 7.78111 401.462C34.4469 391.084 62.8682 385.771 91.5424 385.804ZM2471.65 520.981H91.5424C67.2639 520.981 43.9797 530.475 26.8122 547.376C9.64462 564.276 0 587.198 0 611.099V2233.22C0 2257.12 9.64462 2280.04 26.8122 2296.94C43.9797 2313.84 67.2639 2323.34 91.5424 2323.34H2471.65C2495.92 2323.34 2519.21 2313.84 2536.38 2296.94C2553.54 2280.04 2563.19 2257.12 2563.19 2233.22V611.099C2563.19 587.198 2553.54 564.276 2536.38 547.376C2519.21 530.475 2495.92 520.981 2471.65 520.981ZM1925.25 1602.39C1889.04 1602.39 1853.64 1591.82 1823.54 1572.02C1793.43 1552.21 1769.96 1524.07 1756.1 1491.13C1742.25 1458.2 1738.62 1421.96 1745.68 1387C1752.75 1352.03 1770.19 1319.92 1795.79 1294.71C1821.4 1269.51 1854.02 1252.34 1889.53 1245.39C1925.05 1238.43 1961.86 1242 1995.32 1255.64C2028.77 1269.28 2057.36 1292.39 2077.48 1322.03C2097.6 1351.66 2108.34 1386.51 2108.34 1422.16C2108.34 1469.96 2089.05 1515.8 2054.71 1549.6C2020.38 1583.41 1973.81 1602.39 1925.25 1602.39Z" fill="#256D85"/>
<ellipse cx="1923.48" cy="1422.3" rx="190.891" ry="187.977" fill="#256D85"/>
<g clip-path="url(#clip0_427_2)">
<rect x="731.285" y="741.383" width="1831.71" height="1264.49" rx="75" fill="#256D85"/>
<circle cx="2405.29" cy="1442.38" r="159" fill="#06283D" stroke="#DFF6FF" stroke-width="126"/>
<line x1="2339.58" y1="1572.64" x2="2141.23" y2="1862.94" stroke="#DFF6FF" stroke-width="120"/>
</g>
<defs>
<clipPath id="clip0_427_2">
<rect x="731.285" y="741.383" width="1831.71" height="1264.49" rx="75" fill="white"/>
</clipPath>
</defs>
</svg>
